<svg width="343" height="349" viewBox="0 0 343 349" fill="none" xmlns="http://www.w3.org/2000/svg">
<path d="M171.2 0C99.3 0 41 58.3 41 130.2C41 202.1 99.3 260.4 171.2 260.4C243.1 260.4 301.4 202.1 301.4 130.2C301.4 58.3 243.2 0 171.2 0ZM229.9 171.8C229.9 172.7 229.9 173.5 230 174.4C231.4 186.6 230.3 185.3 242.1 188.2C244.5 188.8 246.3 189.1 246.3 192.3C246.2 197.2 246 197.5 241 197.4C229.8 197 218.6 196.4 207.3 196.4C199.6 196.4 192 197.1 184.3 197.6C182.1 197.7 180.5 197.4 180.3 194.7C180 190.7 180.7 189.5 183.5 188.9C198.4 185.4 196.6 186.1 197.1 173.2C197.6 161.5 197.2 149.9 197.2 138.2C197.2 136.5 197.1 135.2 194.9 135.3C178.6 135.4 162.3 135.4 146 135.5C145.8 135.5 145.6 135.6 145.4 135.7C145.1 135.8 144.8 135.9 144.4 136C144.9 151.2 145.5 166.4 146 181.6C146.1 184.3 147.5 186 150.1 186.7C152.9 187.5 155.7 188.5 158.5 189C162.2 189.7 161.4 192.4 161.5 194.8C161.6 197.4 160.1 198 157.7 197.9C149.4 197.4 141.1 196.6 132.8 196.7C121.6 196.8 110.3 197.4 99.1 198C96.6 198.1 95.7 197.2 95.7 195C95.5 188.9 96.1 189.7 100.2 188.8C112 186.2 111.9 186.9 112 175.8C112.4 150.2 112.2 124.6 112.2 99C112.2 92.7 111.7 86.5 111.5 80.2C111.4 77.2 109.7 75.4 106.9 74.6C104.2 73.8 101.5 73.1 98.8 72.5C96 71.9 95.4 70.4 95.9 65.8C96.2 63.1 98 63.7 99.7 63.7C118.6 63.7 137.5 63.6 156.4 63.7C158 63.7 160.6 63.9 160.9 64.8C161.6 66.7 161.4 69 161.1 71.1C161 71.6 159.7 72.2 158.8 72.5C156.1 73.3 153.4 74 150.7 74.6C147.2 75.3 145.5 77.5 145.4 80.9C145.1 93.9 144.9 106.8 144.8 119.8C144.8 120.5 146.2 121.7 146.9 121.7C162.9 121.8 178.9 121.8 194.9 121.7C195.6 121.7 196.9 120.4 196.9 119.7C196.8 106.8 196.5 94 196.3 81.1C196.2 77.5 194.4 75.3 190.9 74.5C188.4 73.9 185.9 73 183.4 72.6C179.6 72 180.5 69.2 180.4 66.8C180.3 64.3 181.7 63.5 184.1 63.6C191.9 64 199.6 64.5 207.4 64.5C219.1 64.4 230.7 64 242.4 63.6C244.8 63.5 246 64.1 246.2 66.6C246.6 70.5 245.9 71.9 243.1 72.5C240.4 73.1 237.7 74 235 74.6C232 75.3 230.6 77.1 230.4 80C230.1 83.6 229.6 87.1 229.6 90.7C229.8 117.3 229.9 144.5 229.9 171.8Z" fill="#DC3A38"/>
<path d="M92.9414 288.49C93.7161 288.536 94.4453 288.572 95.1289 288.6C95.8216 288.618 96.4368 288.627 96.9746 288.627C97.5306 288.627 98.1504 288.618 98.834 288.6C99.5267 288.572 100.324 288.536 101.227 288.49V289.721C101.172 289.721 101.094 289.716 100.994 289.707C100.894 289.698 100.826 289.693 100.789 289.693C100.023 289.693 99.5039 289.921 99.2305 290.377C98.957 290.833 98.8203 291.863 98.8203 293.467C98.8203 293.704 98.8249 294.132 98.834 294.752C98.8431 295.372 98.8477 295.878 98.8477 296.27L98.875 305.867L98.957 305.881C100.133 305.954 101.021 305.99 101.623 305.99C103.911 305.99 105.41 305.753 106.121 305.279C106.832 304.805 107.415 303.903 107.871 302.572L109.129 302.955C108.846 303.785 108.591 304.618 108.363 305.457C108.145 306.296 107.953 307.143 107.789 308C106.176 307.945 104.676 307.904 103.291 307.877C101.906 307.85 100.639 307.836 99.4902 307.836C98.3509 307.836 97.2025 307.85 96.0449 307.877C94.8965 307.904 93.7526 307.945 92.6133 308V306.797H92.9961C93.4883 306.797 93.8665 306.747 94.1309 306.646C94.3952 306.546 94.5866 306.382 94.7051 306.154C94.9603 305.653 95.097 303.78 95.1152 300.535C95.1243 300.116 95.1289 299.797 95.1289 299.578L95.1562 296.598C95.1562 296.197 95.1608 295.673 95.1699 295.025C95.179 294.369 95.1836 293.913 95.1836 293.658C95.1836 292.018 95.0469 290.947 94.7734 290.445C94.5091 289.944 94.0033 289.693 93.2559 289.693H92.9414V288.49ZM110.332 288.463C111.882 288.527 113.312 288.577 114.625 288.613C115.938 288.641 117.09 288.654 118.084 288.654C119.752 288.654 121.16 288.641 122.309 288.613C123.466 288.577 124.542 288.527 125.535 288.463C125.553 289.256 125.59 290.04 125.645 290.814C125.699 291.58 125.777 292.355 125.877 293.139L124.646 293.303C124.519 292.163 124.141 291.393 123.512 290.992C122.892 290.591 121.643 290.391 119.766 290.391C119.428 290.391 118.977 290.4 118.412 290.418C117.856 290.427 117.173 290.445 116.361 290.473C116.343 291.676 116.325 292.829 116.307 293.932C116.298 295.035 116.284 296.092 116.266 297.104H116.662C117.191 297.104 117.847 297.108 118.631 297.117C119.424 297.126 119.952 297.131 120.217 297.131C121.475 297.131 122.299 297.008 122.691 296.762C123.083 296.516 123.293 296.046 123.32 295.354L124.332 295.449C124.332 295.905 124.318 296.479 124.291 297.172C124.264 297.855 124.25 298.32 124.25 298.566C124.25 298.812 124.255 299.127 124.264 299.51C124.282 299.893 124.305 300.353 124.332 300.891L123.184 300.973V300.809C123.184 300.025 122.956 299.496 122.5 299.223C122.053 298.949 120.992 298.812 119.314 298.812H117.277H116.238V300.385C116.238 301.196 116.243 302.03 116.252 302.887C116.261 303.734 116.275 304.746 116.293 305.922C116.703 305.977 117.214 306.022 117.824 306.059C118.444 306.086 119.118 306.1 119.848 306.1C122.026 306.1 123.475 305.872 124.195 305.416C124.924 304.96 125.512 304.085 125.959 302.791L127.217 303.188C126.916 304.062 126.656 304.896 126.438 305.689C126.228 306.482 126.05 307.253 125.904 308C123.753 307.927 122.04 307.877 120.764 307.85C119.488 307.822 118.353 307.809 117.359 307.809C116.238 307.809 114.447 307.85 111.986 307.932C111.139 307.959 110.496 307.982 110.059 308V306.797C110.113 306.806 110.173 306.815 110.236 306.824C110.309 306.824 110.414 306.824 110.551 306.824C111.316 306.824 111.836 306.592 112.109 306.127C112.383 305.653 112.52 304.418 112.52 302.422V301.055V299.797L112.547 296.748C112.547 296.611 112.551 296.406 112.561 296.133C112.588 295.012 112.602 294.246 112.602 293.836C112.602 293.426 112.597 292.997 112.588 292.551C112.579 292.104 112.574 291.858 112.574 291.812C112.574 291.02 112.428 290.468 112.137 290.158C111.854 289.848 111.357 289.693 110.646 289.693H110.332V288.463ZM142.447 289.078V289.379C142.447 290.044 142.484 290.728 142.557 291.43C142.639 292.122 142.757 292.838 142.912 293.576L141.49 293.809C141.335 292.624 140.893 291.73 140.164 291.129C139.444 290.527 138.451 290.227 137.184 290.227C136.008 290.227 135.087 290.459 134.422 290.924C133.757 291.389 133.424 292.031 133.424 292.852C133.424 293.398 133.561 293.872 133.834 294.273C134.107 294.665 134.531 295.012 135.105 295.312C135.552 295.549 136.322 295.85 137.416 296.215C138.519 296.579 139.335 296.867 139.863 297.076C141.057 297.568 141.951 298.211 142.543 299.004C143.145 299.797 143.445 300.74 143.445 301.834C143.445 303.821 142.684 305.407 141.162 306.592C139.64 307.777 137.576 308.369 134.969 308.369C134.112 308.369 133.246 308.283 132.371 308.109C131.496 307.945 130.644 307.704 129.814 307.385C129.814 307.285 129.819 307.152 129.828 306.988C129.837 306.815 129.842 306.688 129.842 306.605C129.842 305.904 129.796 305.188 129.705 304.459C129.623 303.73 129.491 302.978 129.309 302.203L130.799 301.834C131.145 303.511 131.701 304.682 132.467 305.348C133.242 306.013 134.39 306.346 135.912 306.346C137.143 306.346 138.113 306.072 138.824 305.525C139.535 304.979 139.891 304.245 139.891 303.324C139.891 302.012 138.637 300.913 136.131 300.029C135.575 299.838 135.151 299.688 134.859 299.578C133.128 298.931 131.883 298.179 131.127 297.322C130.38 296.465 130.006 295.395 130.006 294.109C130.006 292.341 130.689 290.915 132.057 289.83C133.424 288.745 135.233 288.203 137.484 288.203C138.268 288.203 139.061 288.276 139.863 288.422C140.674 288.559 141.536 288.777 142.447 289.078ZM154.328 288.49C154.592 288.499 154.975 288.518 155.477 288.545C156.88 288.618 157.833 288.654 158.334 288.654C158.963 288.654 160.093 288.613 161.725 288.531C162.089 288.513 162.367 288.499 162.559 288.49V289.721H162.244C161.46 289.721 160.927 289.912 160.645 290.295C160.371 290.678 160.234 291.699 160.234 293.357V293.973V296.967C161 296.994 161.757 297.017 162.504 297.035C163.251 297.044 163.99 297.049 164.719 297.049C165.402 297.049 166.173 297.044 167.029 297.035C167.886 297.017 168.829 296.994 169.859 296.967V293.357C169.859 291.699 169.723 290.678 169.449 290.295C169.176 289.912 168.643 289.721 167.85 289.721H167.535V288.49C168.41 288.545 169.199 288.586 169.9 288.613C170.602 288.641 171.227 288.654 171.773 288.654C172.275 288.654 173.227 288.618 174.631 288.545C175.123 288.518 175.506 288.499 175.779 288.49V289.707C175.725 289.707 175.661 289.707 175.588 289.707C175.524 289.698 175.438 289.693 175.328 289.693C174.608 289.693 174.12 289.93 173.865 290.404C173.61 290.869 173.482 291.908 173.482 293.521C173.482 293.795 173.487 294.287 173.496 294.998C173.505 295.709 173.51 296.292 173.51 296.748V299.633C173.51 300.18 173.505 300.868 173.496 301.697C173.487 302.518 173.482 303.069 173.482 303.352C173.482 304.783 173.615 305.717 173.879 306.154C174.143 306.583 174.645 306.797 175.383 306.797C175.52 306.797 175.62 306.797 175.684 306.797C175.757 306.788 175.82 306.779 175.875 306.77V308C175.565 307.982 175.128 307.959 174.562 307.932C173.15 307.868 172.211 307.836 171.746 307.836C171.227 307.836 170.602 307.85 169.873 307.877C169.144 307.904 168.31 307.945 167.371 308V306.77C167.444 306.77 167.535 306.774 167.645 306.783C167.754 306.792 167.831 306.797 167.877 306.797C168.661 306.797 169.185 306.592 169.449 306.182C169.723 305.771 169.859 304.714 169.859 303.01V301.984V299.072C168.939 299.054 168.091 299.04 167.316 299.031C166.542 299.022 165.776 299.018 165.02 299.018C163.725 299.018 162.745 299.022 162.08 299.031C161.424 299.04 160.809 299.054 160.234 299.072V303.01C160.234 304.714 160.367 305.771 160.631 306.182C160.904 306.592 161.433 306.797 162.217 306.797C162.262 306.797 162.34 306.792 162.449 306.783C162.568 306.774 162.659 306.77 162.723 306.77V308C161.775 307.945 160.936 307.904 160.207 307.877C159.478 307.85 158.863 307.836 158.361 307.836C157.887 307.836 156.949 307.868 155.545 307.932C154.98 307.959 154.538 307.982 154.219 308V306.77C154.283 306.779 154.351 306.788 154.424 306.797C154.497 306.797 154.606 306.797 154.752 306.797C155.481 306.797 155.973 306.56 156.229 306.086C156.493 305.603 156.625 304.568 156.625 302.982C156.625 302.709 156.62 302.203 156.611 301.465C156.602 300.727 156.598 300.125 156.598 299.66V296.748C156.598 296.238 156.602 295.59 156.611 294.807C156.62 294.023 156.625 293.494 156.625 293.221C156.625 291.762 156.493 290.81 156.229 290.363C155.964 289.917 155.481 289.693 154.779 289.693C154.661 289.693 154.57 289.698 154.506 289.707C154.442 289.707 154.383 289.707 154.328 289.707V288.49ZM178.117 288.463C179.667 288.527 181.098 288.577 182.41 288.613C183.723 288.641 184.876 288.654 185.869 288.654C187.537 288.654 188.945 288.641 190.094 288.613C191.251 288.577 192.327 288.527 193.32 288.463C193.339 289.256 193.375 290.04 193.43 290.814C193.484 291.58 193.562 292.355 193.662 293.139L192.432 293.303C192.304 292.163 191.926 291.393 191.297 290.992C190.677 290.591 189.428 290.391 187.551 290.391C187.214 290.391 186.762 290.4 186.197 290.418C185.641 290.427 184.958 290.445 184.146 290.473C184.128 291.676 184.11 292.829 184.092 293.932C184.083 295.035 184.069 296.092 184.051 297.104H184.447C184.976 297.104 185.632 297.108 186.416 297.117C187.209 297.126 187.738 297.131 188.002 297.131C189.26 297.131 190.085 297.008 190.477 296.762C190.868 296.516 191.078 296.046 191.105 295.354L192.117 295.449C192.117 295.905 192.104 296.479 192.076 297.172C192.049 297.855 192.035 298.32 192.035 298.566C192.035 298.812 192.04 299.127 192.049 299.51C192.067 299.893 192.09 300.353 192.117 300.891L190.969 300.973V300.809C190.969 300.025 190.741 299.496 190.285 299.223C189.839 298.949 188.777 298.812 187.1 298.812H185.062H184.023V300.385C184.023 301.196 184.028 302.03 184.037 302.887C184.046 303.734 184.06 304.746 184.078 305.922C184.488 305.977 184.999 306.022 185.609 306.059C186.229 306.086 186.904 306.1 187.633 306.1C189.811 306.1 191.26 305.872 191.98 305.416C192.71 304.96 193.298 304.085 193.744 302.791L195.002 303.188C194.701 304.062 194.441 304.896 194.223 305.689C194.013 306.482 193.835 307.253 193.689 308C191.538 307.927 189.825 307.877 188.549 307.85C187.273 307.822 186.138 307.809 185.145 307.809C184.023 307.809 182.232 307.85 179.771 307.932C178.924 307.959 178.281 307.982 177.844 308V306.797C177.898 306.806 177.958 306.815 178.021 306.824C178.094 306.824 178.199 306.824 178.336 306.824C179.102 306.824 179.621 306.592 179.895 306.127C180.168 305.653 180.305 304.418 180.305 302.422V301.055V299.797L180.332 296.748C180.332 296.611 180.337 296.406 180.346 296.133C180.373 295.012 180.387 294.246 180.387 293.836C180.387 293.426 180.382 292.997 180.373 292.551C180.364 292.104 180.359 291.858 180.359 291.812C180.359 291.02 180.214 290.468 179.922 290.158C179.639 289.848 179.143 289.693 178.432 289.693H178.117V288.463ZM196.479 288.518C196.825 288.527 197.367 288.554 198.105 288.6C198.853 288.636 199.386 288.654 199.705 288.654C199.988 288.654 200.48 288.636 201.182 288.6C201.893 288.554 202.417 288.527 202.754 288.518C202.882 288.855 203.068 289.215 203.314 289.598C203.561 289.971 203.884 290.395 204.285 290.869L214.334 302.723C214.325 301.538 214.311 299.956 214.293 297.979C214.257 293.631 214.188 291.257 214.088 290.855C213.96 290.418 213.76 290.122 213.486 289.967C213.213 289.803 212.762 289.721 212.133 289.721H211.682V288.518C212.675 288.563 213.432 288.6 213.951 288.627C214.471 288.645 214.899 288.654 215.236 288.654C215.637 288.654 216.12 288.645 216.686 288.627C217.251 288.6 217.962 288.563 218.818 288.518V289.721H218.572C217.989 289.721 217.561 289.789 217.287 289.926C217.014 290.053 216.818 290.281 216.699 290.609C216.553 291.047 216.449 293.102 216.385 296.775V296.994L216.33 299.961C216.312 301.1 216.298 302.171 216.289 303.174C216.28 304.167 216.275 305.001 216.275 305.676C216.275 306.122 216.289 306.555 216.316 306.975C216.353 307.394 216.403 307.799 216.467 308.191H213.787C213.678 307.964 213.518 307.704 213.309 307.412C213.099 307.12 212.698 306.624 212.105 305.922L201.072 293.016C201.072 297.327 201.095 300.421 201.141 302.299C201.186 304.167 201.255 305.27 201.346 305.607C201.473 306.045 201.674 306.35 201.947 306.523C202.23 306.688 202.686 306.77 203.314 306.77H203.738V308C202.699 307.945 201.911 307.909 201.373 307.891C200.844 307.872 200.407 307.863 200.061 307.863C199.769 307.863 199.368 307.872 198.857 307.891C198.356 307.909 197.554 307.945 196.451 308V306.77C196.524 306.779 196.597 306.788 196.67 306.797C196.752 306.797 196.866 306.797 197.012 306.797C198.315 306.797 198.98 305.006 199.008 301.424C199.017 300.631 199.021 300.016 199.021 299.578L199.062 296.666C199.062 296.074 199.072 295.226 199.09 294.123C199.108 293.011 199.117 292.3 199.117 291.99C199.117 291.106 198.962 290.505 198.652 290.186C198.342 289.857 197.786 289.693 196.984 289.693C196.93 289.693 196.843 289.698 196.725 289.707C196.615 289.716 196.533 289.721 196.479 289.721V288.518ZM226.516 298.17C226.999 298.197 227.409 298.22 227.746 298.238C228.083 298.247 228.366 298.252 228.594 298.252C228.876 298.252 229.177 298.247 229.496 298.238C229.815 298.22 230.148 298.197 230.494 298.17C231.287 297.66 231.866 297.081 232.23 296.434C232.604 295.777 232.791 295.012 232.791 294.137C232.791 292.997 232.404 292.077 231.629 291.375C230.863 290.664 229.842 290.309 228.566 290.309C228.174 290.309 227.814 290.322 227.486 290.35C227.167 290.377 226.853 290.418 226.543 290.473C226.534 291.466 226.525 292.505 226.516 293.59C226.516 294.674 226.516 296.201 226.516 298.17ZM220.391 306.797C220.464 306.806 220.532 306.815 220.596 306.824C220.669 306.824 220.778 306.824 220.924 306.824C221.671 306.824 222.173 306.578 222.428 306.086C222.692 305.594 222.824 304.29 222.824 302.176V301.164V300.221V299.715L222.879 296.652C222.888 296.005 222.893 295.363 222.893 294.725C222.902 294.087 222.906 293.321 222.906 292.428C222.906 291.279 222.765 290.536 222.482 290.199C222.209 289.862 221.689 289.693 220.924 289.693H220.637V288.49C221.612 288.536 222.419 288.572 223.057 288.6C223.695 288.618 224.251 288.627 224.725 288.627C225.399 288.627 226.238 288.604 227.24 288.559C228.243 288.513 228.917 288.49 229.264 288.49C231.524 288.49 233.306 288.96 234.609 289.898C235.913 290.837 236.564 292.113 236.564 293.727C236.564 294.802 236.236 295.75 235.58 296.57C234.933 297.391 233.958 298.092 232.654 298.676L235.334 302.449C236.61 304.436 237.54 305.685 238.123 306.195C238.715 306.706 239.344 306.961 240.01 306.961C240.046 306.961 240.096 306.956 240.16 306.947C240.233 306.938 240.288 306.934 240.324 306.934V308.082C239.768 308.128 239.285 308.16 238.875 308.178C238.465 308.205 238.105 308.219 237.795 308.219C236.683 308.219 235.812 308.096 235.184 307.85C234.555 307.604 233.99 307.18 233.488 306.578C233.251 306.296 232.668 305.389 231.738 303.857C230.809 302.317 229.993 301 229.291 299.906C228.726 299.924 228.225 299.938 227.787 299.947C227.35 299.956 226.926 299.961 226.516 299.961V303.598C226.516 304.992 226.652 305.872 226.926 306.236C227.199 306.592 227.737 306.77 228.539 306.77H228.922V308C228.174 307.954 227.427 307.923 226.68 307.904C225.932 307.877 225.167 307.863 224.383 307.863C224.128 307.863 223.749 307.872 223.248 307.891C222.756 307.9 221.803 307.936 220.391 308V306.797ZM241.555 288.49C242.448 288.545 243.264 288.586 244.002 288.613C244.749 288.641 245.415 288.654 245.998 288.654C246.572 288.654 247.215 288.641 247.926 288.613C248.646 288.586 249.443 288.545 250.318 288.49V289.721H250.031C249.402 289.721 248.951 289.785 248.678 289.912C248.413 290.04 248.222 290.272 248.104 290.609C248.003 290.892 247.93 291.448 247.885 292.277C247.839 293.107 247.816 294.597 247.816 296.748V302.367C247.816 303.652 247.839 304.546 247.885 305.047C247.939 305.539 248.031 305.899 248.158 306.127C248.286 306.355 248.5 306.519 248.801 306.619C249.102 306.719 249.548 306.77 250.141 306.77H250.482V308C249.48 307.945 248.6 307.904 247.844 307.877C247.087 307.85 246.445 307.836 245.916 307.836C245.433 307.836 244.809 307.85 244.043 307.877C243.277 307.904 242.389 307.945 241.377 308V306.77H241.719C242.329 306.77 242.785 306.719 243.086 306.619C243.387 306.519 243.592 306.355 243.701 306.127C243.838 305.872 243.934 305.457 243.988 304.883C244.043 304.299 244.07 303.247 244.07 301.725V299.66V293.727C244.07 292.596 244.043 291.808 243.988 291.361C243.943 290.906 243.856 290.568 243.729 290.35C243.61 290.131 243.4 289.971 243.1 289.871C242.808 289.771 242.384 289.721 241.828 289.721H241.555V288.49ZM247.256 280.506L249.922 281.996L245.041 286.549L243.701 286.057L247.256 280.506ZM7.16406 332.416C7.5013 332.471 7.8112 332.512 8.09375 332.539C8.38542 332.557 8.6543 332.566 8.90039 332.566C10.4863 332.566 11.6986 332.206 12.5371 331.486C13.3757 330.757 13.7949 329.718 13.7949 328.369C13.7949 327.111 13.3984 326.122 12.6055 325.402C11.8125 324.673 10.7279 324.309 9.35156 324.309C9.03255 324.309 8.70443 324.322 8.36719 324.35C8.03906 324.377 7.65625 324.427 7.21875 324.5C7.20052 325.639 7.18685 326.792 7.17773 327.959C7.16862 329.126 7.16406 330.611 7.16406 332.416ZM1.06641 340.797C1.14844 340.806 1.23047 340.815 1.3125 340.824C1.39453 340.824 1.51758 340.824 1.68164 340.824C2.41081 340.824 2.90299 340.601 3.1582 340.154C3.42253 339.708 3.55469 338.682 3.55469 337.078V335.902C3.55469 335.355 3.55013 334.932 3.54102 334.631C3.5319 334.33 3.51823 334.043 3.5 333.77L3.47266 330.461V325.648C3.47266 324.947 3.32682 324.445 3.03516 324.145C2.74349 323.844 2.26042 323.693 1.58594 323.693H1.3125V322.422C2.0599 322.486 2.74805 322.531 3.37695 322.559C4.01497 322.586 4.60742 322.6 5.1543 322.6C6.00195 322.6 6.9681 322.572 8.05273 322.518C9.14648 322.454 9.80273 322.422 10.0215 322.422C12.3639 322.422 14.2051 322.937 15.5449 323.967C16.8848 324.997 17.5547 326.396 17.5547 328.164C17.5547 330.023 16.862 331.5 15.4766 332.594C14.0911 333.678 12.1908 334.221 9.77539 334.221C9.37435 334.221 8.65885 334.175 7.62891 334.084C7.42839 334.066 7.28255 334.052 7.19141 334.043V337.434C7.19141 338.919 7.33268 339.849 7.61523 340.223C7.9069 340.587 8.48568 340.77 9.35156 340.77H9.83008V342C8.92773 341.945 8.08464 341.904 7.30078 341.877C6.51693 341.85 5.79232 341.836 5.12695 341.836C4.83529 341.836 4.35221 341.85 3.67773 341.877C3.00326 341.904 2.13281 341.945 1.06641 342V340.797ZM28.4512 325.676L25.4707 333.236C25.8171 333.245 26.1816 333.255 26.5645 333.264C26.9564 333.264 27.4759 333.264 28.123 333.264C28.8704 333.264 29.4538 333.264 29.873 333.264C30.2923 333.255 30.6842 333.245 31.0488 333.236L28.4512 325.676ZM27.6992 322.395H31.0352C32.3477 326.241 33.5964 329.777 34.7812 333.004C35.9753 336.221 36.8092 338.363 37.2832 339.43C37.4837 339.913 37.7344 340.259 38.0352 340.469C38.3451 340.669 38.7552 340.77 39.2656 340.77H39.5664V342C38.4089 341.945 37.5202 341.909 36.9004 341.891C36.2806 341.872 35.7611 341.863 35.3418 341.863C34.9408 341.863 34.4212 341.872 33.7832 341.891C33.1452 341.909 32.2201 341.945 31.0078 342V340.77H31.2539C31.974 340.77 32.4616 340.688 32.7168 340.523C32.972 340.359 33.0996 340.068 33.0996 339.648C33.0996 339.521 33.0814 339.37 33.0449 339.197C33.0176 339.024 32.9538 338.783 32.8535 338.473L31.7324 335.164C31.2129 335.155 30.5293 335.146 29.6816 335.137C28.834 335.118 28.3053 335.109 28.0957 335.109C27.7038 335.109 26.9154 335.123 25.7305 335.15C25.3021 335.16 24.9694 335.164 24.7324 335.164L24.6777 335.301C23.7845 337.479 23.3379 338.855 23.3379 339.43C23.3379 339.904 23.4701 340.245 23.7344 340.455C24.0078 340.665 24.4544 340.77 25.0742 340.77H25.3203V342C24.2812 341.945 23.4746 341.909 22.9004 341.891C22.3262 341.872 21.8522 341.863 21.4785 341.863C21.1686 341.863 20.7585 341.872 20.248 341.891C19.7467 341.909 19.013 341.945 18.0469 342V340.77C18.7031 340.77 19.2272 340.656 19.6191 340.428C20.0111 340.2 20.3438 339.817 20.6172 339.279C21.0091 338.568 21.8932 336.581 23.2695 333.318C24.6458 330.055 26.1224 326.414 27.6992 322.395ZM28.6836 315.285H30.0508L34.1113 320.029L32.9629 320.549L29.3809 317.787L25.7988 320.549L24.6504 319.988L28.6836 315.285ZM44.9258 340.77H45.4316C46.0423 340.77 46.4889 340.706 46.7715 340.578C47.054 340.441 47.2637 340.204 47.4004 339.867C47.4915 339.612 47.5553 338.992 47.5918 338.008C47.6283 337.023 47.6465 335.201 47.6465 332.539V324.719H45.2949C43.8639 324.719 42.8841 324.919 42.3555 325.32C41.8268 325.721 41.4622 326.492 41.2617 327.631L39.9766 327.357C40.1862 326.455 40.3457 325.594 40.4551 324.773C40.5736 323.944 40.6465 323.128 40.6738 322.326C41.0202 322.445 41.5078 322.531 42.1367 322.586C42.7656 322.632 43.8275 322.654 45.3223 322.654H48.3438H50.0527H53.5254C55.2025 322.654 56.3691 322.632 57.0254 322.586C57.6908 322.531 58.1784 322.44 58.4883 322.312V322.736C58.4883 323.447 58.5156 324.186 58.5703 324.951C58.6341 325.708 58.7253 326.51 58.8438 327.357L57.6133 327.549C57.4583 326.437 57.1439 325.689 56.6699 325.307C56.196 324.915 55.2617 324.719 53.8672 324.719H53.5254H51.4609C51.4336 326.177 51.4154 327.613 51.4062 329.025C51.3971 330.438 51.3926 332.083 51.3926 333.961V336.518C51.3926 337.721 51.4199 338.564 51.4746 339.047C51.5293 339.53 51.6159 339.89 51.7344 340.127C51.8711 340.355 52.0853 340.519 52.377 340.619C52.6686 340.719 53.0788 340.77 53.6074 340.77H54.0859V342C53.8581 341.991 53.5208 341.977 53.0742 341.959C51.2878 341.877 50.0664 341.836 49.4102 341.836C48.9362 341.836 48.3255 341.85 47.5781 341.877C46.8398 341.904 45.9557 341.945 44.9258 342V340.77ZM60.3203 322.49C61.2135 322.545 62.0293 322.586 62.7676 322.613C63.515 322.641 64.1803 322.654 64.7637 322.654C65.3379 322.654 65.9805 322.641 66.6914 322.613C67.4115 322.586 68.209 322.545 69.084 322.49V323.721H68.7969C68.168 323.721 67.7168 323.785 67.4434 323.912C67.179 324.04 66.9876 324.272 66.8691 324.609C66.7689 324.892 66.696 325.448 66.6504 326.277C66.6048 327.107 66.582 328.597 66.582 330.748V336.367C66.582 337.652 66.6048 338.546 66.6504 339.047C66.7051 339.539 66.7962 339.899 66.9238 340.127C67.0514 340.355 67.2656 340.519 67.5664 340.619C67.8672 340.719 68.3138 340.77 68.9062 340.77H69.248V342C68.2454 341.945 67.3659 341.904 66.6094 341.877C65.8529 341.85 65.2103 341.836 64.6816 341.836C64.1986 341.836 63.5742 341.85 62.8086 341.877C62.043 341.904 61.1543 341.945 60.1426 342V340.77H60.4844C61.0951 340.77 61.5508 340.719 61.8516 340.619C62.1523 340.519 62.3574 340.355 62.4668 340.127C62.6035 339.872 62.6992 339.457 62.7539 338.883C62.8086 338.299 62.8359 337.247 62.8359 335.725V333.66V327.727C62.8359 326.596 62.8086 325.808 62.7539 325.361C62.7083 324.906 62.6217 324.568 62.4941 324.35C62.3757 324.131 62.166 323.971 61.8652 323.871C61.5736 323.771 61.1497 323.721 60.5938 323.721H60.3203V322.49ZM84.4512 323.078V323.379C84.4512 324.044 84.4876 324.728 84.5605 325.43C84.6426 326.122 84.7611 326.838 84.916 327.576L83.4941 327.809C83.3392 326.624 82.8971 325.73 82.168 325.129C81.4479 324.527 80.4544 324.227 79.1875 324.227C78.0117 324.227 77.0911 324.459 76.4258 324.924C75.7604 325.389 75.4277 326.031 75.4277 326.852C75.4277 327.398 75.5645 327.872 75.8379 328.273C76.1113 328.665 76.5352 329.012 77.1094 329.312C77.556 329.549 78.3262 329.85 79.4199 330.215C80.5228 330.579 81.3385 330.867 81.8672 331.076C83.0612 331.568 83.9544 332.211 84.5469 333.004C85.1484 333.797 85.4492 334.74 85.4492 335.834C85.4492 337.821 84.6882 339.407 83.166 340.592C81.6439 341.777 79.5794 342.369 76.9727 342.369C76.1159 342.369 75.25 342.283 74.375 342.109C73.5 341.945 72.6478 341.704 71.8184 341.385C71.8184 341.285 71.8229 341.152 71.832 340.988C71.8411 340.815 71.8457 340.688 71.8457 340.605C71.8457 339.904 71.8001 339.188 71.709 338.459C71.627 337.73 71.4948 336.978 71.3125 336.203L72.8027 335.834C73.1491 337.511 73.7051 338.682 74.4707 339.348C75.2454 340.013 76.3939 340.346 77.916 340.346C79.1465 340.346 80.1172 340.072 80.8281 339.525C81.5391 338.979 81.8945 338.245 81.8945 337.324C81.8945 336.012 80.6413 334.913 78.1348 334.029C77.5788 333.838 77.1549 333.688 76.8633 333.578C75.1315 332.931 73.8874 332.179 73.1309 331.322C72.3835 330.465 72.0098 329.395 72.0098 328.109C72.0098 326.341 72.6934 324.915 74.0605 323.83C75.4277 322.745 77.237 322.203 79.4883 322.203C80.2721 322.203 81.0651 322.276 81.8672 322.422C82.6784 322.559 83.5397 322.777 84.4512 323.078ZM101.35 323.078V323.379C101.35 324.044 101.386 324.728 101.459 325.43C101.541 326.122 101.66 326.838 101.814 327.576L100.393 327.809C100.238 326.624 99.7956 325.73 99.0664 325.129C98.3464 324.527 97.3529 324.227 96.0859 324.227C94.9102 324.227 93.9896 324.459 93.3242 324.924C92.6589 325.389 92.3262 326.031 92.3262 326.852C92.3262 327.398 92.4629 327.872 92.7363 328.273C93.0098 328.665 93.4336 329.012 94.0078 329.312C94.4544 329.549 95.2246 329.85 96.3184 330.215C97.4212 330.579 98.237 330.867 98.7656 331.076C99.9596 331.568 100.853 332.211 101.445 333.004C102.047 333.797 102.348 334.74 102.348 335.834C102.348 337.821 101.587 339.407 100.064 340.592C98.5423 341.777 96.4779 342.369 93.8711 342.369C93.0143 342.369 92.1484 342.283 91.2734 342.109C90.3984 341.945 89.5462 341.704 88.7168 341.385C88.7168 341.285 88.7214 341.152 88.7305 340.988C88.7396 340.815 88.7441 340.688 88.7441 340.605C88.7441 339.904 88.6986 339.188 88.6074 338.459C88.5254 337.73 88.3932 336.978 88.2109 336.203L89.7012 335.834C90.0475 337.511 90.6035 338.682 91.3691 339.348C92.1439 340.013 93.2923 340.346 94.8145 340.346C96.0449 340.346 97.0156 340.072 97.7266 339.525C98.4375 338.979 98.793 338.245 98.793 337.324C98.793 336.012 97.5397 334.913 95.0332 334.029C94.4772 333.838 94.0534 333.688 93.7617 333.578C92.0299 332.931 90.7858 332.179 90.0293 331.322C89.2819 330.465 88.9082 329.395 88.9082 328.109C88.9082 326.341 89.5918 324.915 90.959 323.83C92.3262 322.745 94.1354 322.203 96.3867 322.203C97.1706 322.203 97.9635 322.276 98.7656 322.422C99.5768 322.559 100.438 322.777 101.35 323.078ZM105.027 322.463C106.577 322.527 108.008 322.577 109.32 322.613C110.633 322.641 111.786 322.654 112.779 322.654C114.447 322.654 115.855 322.641 117.004 322.613C118.161 322.577 119.237 322.527 120.23 322.463C120.249 323.256 120.285 324.04 120.34 324.814C120.395 325.58 120.472 326.355 120.572 327.139L119.342 327.303C119.214 326.163 118.836 325.393 118.207 324.992C117.587 324.591 116.339 324.391 114.461 324.391C114.124 324.391 113.673 324.4 113.107 324.418C112.551 324.427 111.868 324.445 111.057 324.473C111.038 325.676 111.02 326.829 111.002 327.932C110.993 329.035 110.979 330.092 110.961 331.104H111.357C111.886 331.104 112.542 331.108 113.326 331.117C114.119 331.126 114.648 331.131 114.912 331.131C116.17 331.131 116.995 331.008 117.387 330.762C117.779 330.516 117.988 330.046 118.016 329.354L119.027 329.449C119.027 329.905 119.014 330.479 118.986 331.172C118.959 331.855 118.945 332.32 118.945 332.566C118.945 332.812 118.95 333.127 118.959 333.51C118.977 333.893 119 334.353 119.027 334.891L117.879 334.973V334.809C117.879 334.025 117.651 333.496 117.195 333.223C116.749 332.949 115.687 332.812 114.01 332.812H111.973H110.934V334.385C110.934 335.196 110.938 336.03 110.947 336.887C110.956 337.734 110.97 338.746 110.988 339.922C111.398 339.977 111.909 340.022 112.52 340.059C113.139 340.086 113.814 340.1 114.543 340.1C116.721 340.1 118.171 339.872 118.891 339.416C119.62 338.96 120.208 338.085 120.654 336.791L121.912 337.188C121.611 338.062 121.352 338.896 121.133 339.689C120.923 340.482 120.745 341.253 120.6 342C118.449 341.927 116.735 341.877 115.459 341.85C114.183 341.822 113.048 341.809 112.055 341.809C110.934 341.809 109.143 341.85 106.682 341.932C105.834 341.959 105.191 341.982 104.754 342V340.797C104.809 340.806 104.868 340.815 104.932 340.824C105.005 340.824 105.109 340.824 105.246 340.824C106.012 340.824 106.531 340.592 106.805 340.127C107.078 339.653 107.215 338.418 107.215 336.422V335.055V333.797L107.242 330.748C107.242 330.611 107.247 330.406 107.256 330.133C107.283 329.012 107.297 328.246 107.297 327.836C107.297 327.426 107.292 326.997 107.283 326.551C107.274 326.104 107.27 325.858 107.27 325.812C107.27 325.02 107.124 324.468 106.832 324.158C106.549 323.848 106.053 323.693 105.342 323.693H105.027V322.463ZM129.828 332.17C130.311 332.197 130.721 332.22 131.059 332.238C131.396 332.247 131.678 332.252 131.906 332.252C132.189 332.252 132.49 332.247 132.809 332.238C133.128 332.22 133.46 332.197 133.807 332.17C134.6 331.66 135.178 331.081 135.543 330.434C135.917 329.777 136.104 329.012 136.104 328.137C136.104 326.997 135.716 326.077 134.941 325.375C134.176 324.664 133.155 324.309 131.879 324.309C131.487 324.309 131.127 324.322 130.799 324.35C130.48 324.377 130.165 324.418 129.855 324.473C129.846 325.466 129.837 326.505 129.828 327.59C129.828 328.674 129.828 330.201 129.828 332.17ZM123.703 340.797C123.776 340.806 123.844 340.815 123.908 340.824C123.981 340.824 124.09 340.824 124.236 340.824C124.984 340.824 125.485 340.578 125.74 340.086C126.005 339.594 126.137 338.29 126.137 336.176V335.164V334.221V333.715L126.191 330.652C126.201 330.005 126.205 329.363 126.205 328.725C126.214 328.087 126.219 327.321 126.219 326.428C126.219 325.279 126.077 324.536 125.795 324.199C125.521 323.862 125.002 323.693 124.236 323.693H123.949V322.49C124.924 322.536 125.731 322.572 126.369 322.6C127.007 322.618 127.563 322.627 128.037 322.627C128.712 322.627 129.55 322.604 130.553 322.559C131.555 322.513 132.23 322.49 132.576 322.49C134.837 322.49 136.618 322.96 137.922 323.898C139.225 324.837 139.877 326.113 139.877 327.727C139.877 328.802 139.549 329.75 138.893 330.57C138.245 331.391 137.27 332.092 135.967 332.676L138.646 336.449C139.923 338.436 140.852 339.685 141.436 340.195C142.028 340.706 142.657 340.961 143.322 340.961C143.359 340.961 143.409 340.956 143.473 340.947C143.546 340.938 143.6 340.934 143.637 340.934V342.082C143.081 342.128 142.598 342.16 142.188 342.178C141.777 342.205 141.417 342.219 141.107 342.219C139.995 342.219 139.125 342.096 138.496 341.85C137.867 341.604 137.302 341.18 136.801 340.578C136.564 340.296 135.98 339.389 135.051 337.857C134.121 336.317 133.305 335 132.604 333.906C132.038 333.924 131.537 333.938 131.1 333.947C130.662 333.956 130.238 333.961 129.828 333.961V337.598C129.828 338.992 129.965 339.872 130.238 340.236C130.512 340.592 131.049 340.77 131.852 340.77H132.234V342C131.487 341.954 130.74 341.923 129.992 341.904C129.245 341.877 128.479 341.863 127.695 341.863C127.44 341.863 127.062 341.872 126.561 341.891C126.068 341.9 125.116 341.936 123.703 342V340.797ZM144.867 322.49C145.76 322.545 146.576 322.586 147.314 322.613C148.062 322.641 148.727 322.654 149.311 322.654C149.885 322.654 150.527 322.641 151.238 322.613C151.958 322.586 152.756 322.545 153.631 322.49V323.721H153.344C152.715 323.721 152.264 323.785 151.99 323.912C151.726 324.04 151.535 324.272 151.416 324.609C151.316 324.892 151.243 325.448 151.197 326.277C151.152 327.107 151.129 328.597 151.129 330.748V336.367C151.129 337.652 151.152 338.546 151.197 339.047C151.252 339.539 151.343 339.899 151.471 340.127C151.598 340.355 151.812 340.519 152.113 340.619C152.414 340.719 152.861 340.77 153.453 340.77H153.795V342C152.792 341.945 151.913 341.904 151.156 341.877C150.4 341.85 149.757 341.836 149.229 341.836C148.745 341.836 148.121 341.85 147.355 341.877C146.59 341.904 145.701 341.945 144.689 342V340.77H145.031C145.642 340.77 146.098 340.719 146.398 340.619C146.699 340.519 146.904 340.355 147.014 340.127C147.15 339.872 147.246 339.457 147.301 338.883C147.355 338.299 147.383 337.247 147.383 335.725V333.66V327.727C147.383 326.596 147.355 325.808 147.301 325.361C147.255 324.906 147.169 324.568 147.041 324.35C146.923 324.131 146.713 323.971 146.412 323.871C146.12 323.771 145.697 323.721 145.141 323.721H144.867V322.49ZM155.777 322.463C157.327 322.527 158.758 322.577 160.07 322.613C161.383 322.641 162.536 322.654 163.529 322.654C165.197 322.654 166.605 322.641 167.754 322.613C168.911 322.577 169.987 322.527 170.98 322.463C170.999 323.256 171.035 324.04 171.09 324.814C171.145 325.58 171.222 326.355 171.322 327.139L170.092 327.303C169.964 326.163 169.586 325.393 168.957 324.992C168.337 324.591 167.089 324.391 165.211 324.391C164.874 324.391 164.423 324.4 163.857 324.418C163.301 324.427 162.618 324.445 161.807 324.473C161.788 325.676 161.77 326.829 161.752 327.932C161.743 329.035 161.729 330.092 161.711 331.104H162.107C162.636 331.104 163.292 331.108 164.076 331.117C164.869 331.126 165.398 331.131 165.662 331.131C166.92 331.131 167.745 331.008 168.137 330.762C168.529 330.516 168.738 330.046 168.766 329.354L169.777 329.449C169.777 329.905 169.764 330.479 169.736 331.172C169.709 331.855 169.695 332.32 169.695 332.566C169.695 332.812 169.7 333.127 169.709 333.51C169.727 333.893 169.75 334.353 169.777 334.891L168.629 334.973V334.809C168.629 334.025 168.401 333.496 167.945 333.223C167.499 332.949 166.437 332.812 164.76 332.812H162.723H161.684V334.385C161.684 335.196 161.688 336.03 161.697 336.887C161.706 337.734 161.72 338.746 161.738 339.922C162.148 339.977 162.659 340.022 163.27 340.059C163.889 340.086 164.564 340.1 165.293 340.1C167.471 340.1 168.921 339.872 169.641 339.416C170.37 338.96 170.958 338.085 171.404 336.791L172.662 337.188C172.361 338.062 172.102 338.896 171.883 339.689C171.673 340.482 171.495 341.253 171.35 342C169.199 341.927 167.485 341.877 166.209 341.85C164.933 341.822 163.798 341.809 162.805 341.809C161.684 341.809 159.893 341.85 157.432 341.932C156.584 341.959 155.941 341.982 155.504 342V340.797C155.559 340.806 155.618 340.815 155.682 340.824C155.755 340.824 155.859 340.824 155.996 340.824C156.762 340.824 157.281 340.592 157.555 340.127C157.828 339.653 157.965 338.418 157.965 336.422V335.055V333.797L157.992 330.748C157.992 330.611 157.997 330.406 158.006 330.133C158.033 329.012 158.047 328.246 158.047 327.836C158.047 327.426 158.042 326.997 158.033 326.551C158.024 326.104 158.02 325.858 158.02 325.812C158.02 325.02 157.874 324.468 157.582 324.158C157.299 323.848 156.803 323.693 156.092 323.693H155.777V322.463ZM188.836 331.076C189 331.085 189.178 331.094 189.369 331.104C189.561 331.104 189.848 331.104 190.23 331.104C190.75 331.104 191.233 331.094 191.68 331.076C192.126 331.058 192.541 331.031 192.924 330.994C193.544 330.557 194.008 330.064 194.318 329.518C194.637 328.962 194.797 328.365 194.797 327.727C194.797 326.651 194.455 325.808 193.771 325.197C193.088 324.587 192.145 324.281 190.941 324.281C190.622 324.281 190.29 324.299 189.943 324.336C189.597 324.363 189.246 324.409 188.891 324.473C188.882 325.275 188.872 326.432 188.863 327.945C188.854 329.449 188.845 330.493 188.836 331.076ZM188.836 339.84C189.383 339.986 189.875 340.095 190.312 340.168C190.75 340.232 191.165 340.264 191.557 340.264C192.906 340.264 193.963 339.926 194.729 339.252C195.503 338.577 195.891 337.657 195.891 336.49C195.891 335.232 195.462 334.285 194.605 333.646C193.749 332.999 192.477 332.676 190.791 332.676C190.363 332.676 189.998 332.68 189.697 332.689C189.396 332.699 189.1 332.712 188.809 332.73V335.137C188.809 336.586 188.809 337.62 188.809 338.24C188.818 338.851 188.827 339.384 188.836 339.84ZM182.766 340.797C182.82 340.806 182.88 340.815 182.943 340.824C183.016 340.824 183.112 340.824 183.23 340.824C184.488 340.824 185.122 339.261 185.131 336.135C185.131 335.232 185.135 334.517 185.145 333.988V326.633C185.145 325.293 185.008 324.473 184.734 324.172C184.47 323.871 183.96 323.721 183.203 323.721H183.012V322.449C183.732 322.513 184.406 322.559 185.035 322.586C185.664 322.613 186.261 322.627 186.826 322.627C187.656 322.627 188.562 322.604 189.547 322.559C190.54 322.513 191.115 322.49 191.27 322.49C191.279 322.49 191.297 322.486 191.324 322.477C191.452 322.467 191.575 322.458 191.693 322.449C193.826 322.449 195.494 322.873 196.697 323.721C197.9 324.559 198.502 325.708 198.502 327.166C198.502 328.123 198.188 328.975 197.559 329.723C196.93 330.461 195.964 331.117 194.66 331.691C196.328 331.956 197.6 332.489 198.475 333.291C199.35 334.093 199.787 335.128 199.787 336.395C199.787 338.072 199.049 339.434 197.572 340.482C196.105 341.531 194.154 342.055 191.721 342.055C191.347 342.055 190.527 342.027 189.26 341.973C188.002 341.918 186.926 341.891 186.033 341.891C185.787 341.891 185.391 341.904 184.844 341.932C184.297 341.959 183.604 342 182.766 342.055V340.797ZM218.9 332.594C218.9 330.014 218.303 327.941 217.109 326.373C215.915 324.805 214.348 324.021 212.406 324.021C210.547 324.021 209.061 324.719 207.949 326.113C206.846 327.508 206.295 329.395 206.295 331.773C206.295 334.371 206.896 336.458 208.1 338.035C209.312 339.612 210.884 340.4 212.816 340.4C214.685 340.4 216.166 339.703 217.26 338.309C218.354 336.914 218.9 335.009 218.9 332.594ZM212.625 321.984C214.074 321.984 215.368 322.185 216.508 322.586C217.647 322.978 218.695 323.589 219.652 324.418C220.764 325.384 221.621 326.537 222.223 327.877C222.824 329.208 223.125 330.62 223.125 332.115C223.125 335.087 222.118 337.561 220.104 339.539C218.089 341.517 215.569 342.506 212.543 342.506C210.966 342.506 209.54 342.251 208.264 341.74C206.988 341.221 205.857 340.451 204.873 339.43C203.962 338.473 203.264 337.383 202.781 336.162C202.307 334.932 202.07 333.628 202.07 332.252C202.07 330.73 202.367 329.317 202.959 328.014C203.561 326.701 204.431 325.557 205.57 324.582C206.518 323.762 207.612 323.124 208.852 322.668C210.091 322.212 211.349 321.984 212.625 321.984ZM233.652 322.49V323.721C233.598 323.721 233.52 323.716 233.42 323.707C233.32 323.698 233.247 323.693 233.201 323.693C232.426 323.693 231.902 323.921 231.629 324.377C231.355 324.824 231.219 325.967 231.219 327.809V328.902V330.939C231.219 332.781 231.251 334.089 231.314 334.863C231.378 335.629 231.488 336.235 231.643 336.682C231.989 337.766 232.6 338.6 233.475 339.184C234.35 339.758 235.425 340.045 236.701 340.045C237.749 340.045 238.643 339.872 239.381 339.525C240.119 339.17 240.721 338.632 241.186 337.912C241.495 337.429 241.714 336.8 241.842 336.025C241.979 335.242 242.047 334.079 242.047 332.539C242.047 332.247 242.042 331.764 242.033 331.09C242.024 330.406 242.02 329.873 242.02 329.49V328.055C242.02 326.132 241.883 324.924 241.609 324.432C241.336 323.939 240.812 323.693 240.037 323.693C239.919 323.693 239.827 323.698 239.764 323.707C239.7 323.707 239.641 323.707 239.586 323.707V322.49C240.434 322.536 241.135 322.572 241.691 322.6C242.257 322.618 242.74 322.627 243.141 322.627C243.514 322.627 243.965 322.618 244.494 322.6C245.032 322.572 245.729 322.536 246.586 322.49V323.721H246.367C245.82 323.721 245.415 323.785 245.15 323.912C244.886 324.031 244.695 324.245 244.576 324.555C244.403 325.01 244.294 326.993 244.248 330.502C244.248 331.003 244.243 331.391 244.234 331.664C244.234 331.837 244.234 332.088 244.234 332.416C244.216 335.533 243.879 337.675 243.223 338.842C242.566 340.008 241.6 340.911 240.324 341.549C239.048 342.187 237.562 342.506 235.867 342.506C234.309 342.506 232.923 342.251 231.711 341.74C230.508 341.221 229.56 340.487 228.867 339.539C228.348 338.828 227.979 338.008 227.76 337.078C227.541 336.148 227.432 334.763 227.432 332.922C227.432 332.43 227.445 331.555 227.473 330.297C227.5 329.039 227.514 328.032 227.514 327.275C227.514 325.68 227.382 324.691 227.117 324.309C226.862 323.917 226.352 323.721 225.586 323.721H225.258V322.49C226.288 322.536 227.122 322.572 227.76 322.6C228.407 322.618 228.963 322.627 229.428 322.627C229.856 322.627 230.394 322.618 231.041 322.6C231.688 322.572 232.559 322.536 233.652 322.49ZM252.301 340.77H252.807C253.417 340.77 253.864 340.706 254.146 340.578C254.429 340.441 254.639 340.204 254.775 339.867C254.867 339.612 254.93 338.992 254.967 338.008C255.003 337.023 255.021 335.201 255.021 332.539V324.719H252.67C251.239 324.719 250.259 324.919 249.73 325.32C249.202 325.721 248.837 326.492 248.637 327.631L247.352 327.357C247.561 326.455 247.721 325.594 247.83 324.773C247.949 323.944 248.021 323.128 248.049 322.326C248.395 322.445 248.883 322.531 249.512 322.586C250.141 322.632 251.202 322.654 252.697 322.654H255.719H257.428H260.9C262.577 322.654 263.744 322.632 264.4 322.586C265.066 322.531 265.553 322.44 265.863 322.312V322.736C265.863 323.447 265.891 324.186 265.945 324.951C266.009 325.708 266.1 326.51 266.219 327.357L264.988 327.549C264.833 326.437 264.519 325.689 264.045 325.307C263.571 324.915 262.637 324.719 261.242 324.719H260.9H258.836C258.809 326.177 258.79 327.613 258.781 329.025C258.772 330.438 258.768 332.083 258.768 333.961V336.518C258.768 337.721 258.795 338.564 258.85 339.047C258.904 339.53 258.991 339.89 259.109 340.127C259.246 340.355 259.46 340.519 259.752 340.619C260.044 340.719 260.454 340.77 260.982 340.77H261.461V342C261.233 341.991 260.896 341.977 260.449 341.959C258.663 341.877 257.441 341.836 256.785 341.836C256.311 341.836 255.701 341.85 254.953 341.877C254.215 341.904 253.331 341.945 252.301 342V340.77ZM267.695 322.49C268.589 322.545 269.404 322.586 270.143 322.613C270.89 322.641 271.555 322.654 272.139 322.654C272.713 322.654 273.355 322.641 274.066 322.613C274.786 322.586 275.584 322.545 276.459 322.49V323.721H276.172C275.543 323.721 275.092 323.785 274.818 323.912C274.554 324.04 274.363 324.272 274.244 324.609C274.144 324.892 274.071 325.448 274.025 326.277C273.98 327.107 273.957 328.597 273.957 330.748V336.367C273.957 337.652 273.98 338.546 274.025 339.047C274.08 339.539 274.171 339.899 274.299 340.127C274.426 340.355 274.641 340.519 274.941 340.619C275.242 340.719 275.689 340.77 276.281 340.77H276.623V342C275.62 341.945 274.741 341.904 273.984 341.877C273.228 341.85 272.585 341.836 272.057 341.836C271.574 341.836 270.949 341.85 270.184 341.877C269.418 341.904 268.529 341.945 267.518 342V340.77H267.859C268.47 340.77 268.926 340.719 269.227 340.619C269.527 340.519 269.732 340.355 269.842 340.127C269.979 339.872 270.074 339.457 270.129 338.883C270.184 338.299 270.211 337.247 270.211 335.725V333.66V327.727C270.211 326.596 270.184 325.808 270.129 325.361C270.083 324.906 269.997 324.568 269.869 324.35C269.751 324.131 269.541 323.971 269.24 323.871C268.949 323.771 268.525 323.721 267.969 323.721H267.695V322.49ZM295.463 332.594C295.463 330.023 294.861 327.954 293.658 326.387C292.464 324.81 290.901 324.021 288.969 324.021C287.109 324.021 285.624 324.719 284.512 326.113C283.409 327.508 282.857 329.395 282.857 331.773C282.857 334.389 283.459 336.481 284.662 338.049C285.874 339.617 287.469 340.4 289.447 340.4C291.288 340.4 292.751 339.703 293.836 338.309C294.921 336.914 295.463 335.009 295.463 332.594ZM292.947 341.576L295.709 343.23C297.532 344.324 298.967 345.076 300.016 345.486C301.064 345.906 302.003 346.115 302.832 346.115C303.133 346.115 303.434 346.097 303.734 346.061C304.044 346.033 304.363 345.988 304.691 345.924L304.896 347.1C303.766 347.428 302.8 347.665 301.998 347.811C301.196 347.965 300.48 348.043 299.852 348.043C297.527 348.043 293.872 346.225 288.887 342.588L288.518 342.314C285.656 342.314 283.295 341.38 281.436 339.512C279.585 337.643 278.66 335.283 278.66 332.43C278.66 329.458 279.695 326.975 281.764 324.979C283.833 322.982 286.421 321.984 289.529 321.984C290.842 321.984 292.072 322.199 293.221 322.627C294.378 323.046 295.404 323.661 296.297 324.473C297.391 325.448 298.229 326.596 298.812 327.918C299.396 329.23 299.688 330.63 299.688 332.115C299.688 334.367 299.1 336.322 297.924 337.98C296.748 339.63 295.089 340.829 292.947 341.576ZM310.215 322.49V323.721C310.16 323.721 310.083 323.716 309.982 323.707C309.882 323.698 309.809 323.693 309.764 323.693C308.989 323.693 308.465 323.921 308.191 324.377C307.918 324.824 307.781 325.967 307.781 327.809V328.902V330.939C307.781 332.781 307.813 334.089 307.877 334.863C307.941 335.629 308.05 336.235 308.205 336.682C308.551 337.766 309.162 338.6 310.037 339.184C310.912 339.758 311.988 340.045 313.264 340.045C314.312 340.045 315.205 339.872 315.943 339.525C316.682 339.17 317.283 338.632 317.748 337.912C318.058 337.429 318.277 336.8 318.404 336.025C318.541 335.242 318.609 334.079 318.609 332.539C318.609 332.247 318.605 331.764 318.596 331.09C318.587 330.406 318.582 329.873 318.582 329.49V328.055C318.582 326.132 318.445 324.924 318.172 324.432C317.898 323.939 317.374 323.693 316.6 323.693C316.481 323.693 316.39 323.698 316.326 323.707C316.262 323.707 316.203 323.707 316.148 323.707V322.49C316.996 322.536 317.698 322.572 318.254 322.6C318.819 322.618 319.302 322.627 319.703 322.627C320.077 322.627 320.528 322.618 321.057 322.6C321.594 322.572 322.292 322.536 323.148 322.49V323.721H322.93C322.383 323.721 321.977 323.785 321.713 323.912C321.449 324.031 321.257 324.245 321.139 324.555C320.965 325.01 320.856 326.993 320.811 330.502C320.811 331.003 320.806 331.391 320.797 331.664C320.797 331.837 320.797 332.088 320.797 332.416C320.779 335.533 320.441 337.675 319.785 338.842C319.129 340.008 318.163 340.911 316.887 341.549C315.611 342.187 314.125 342.506 312.43 342.506C310.871 342.506 309.486 342.251 308.273 341.74C307.07 341.221 306.122 340.487 305.43 339.539C304.91 338.828 304.541 338.008 304.322 337.078C304.104 336.148 303.994 334.763 303.994 332.922C303.994 332.43 304.008 331.555 304.035 330.297C304.062 329.039 304.076 328.032 304.076 327.275C304.076 325.68 303.944 324.691 303.68 324.309C303.424 323.917 302.914 323.721 302.148 323.721H301.82V322.49C302.85 322.536 303.684 322.572 304.322 322.6C304.969 322.618 305.525 322.627 305.99 322.627C306.419 322.627 306.956 322.618 307.604 322.6C308.251 322.572 309.121 322.536 310.215 322.49ZM325.145 322.463C326.694 322.527 328.125 322.577 329.438 322.613C330.75 322.641 331.903 322.654 332.896 322.654C334.564 322.654 335.973 322.641 337.121 322.613C338.279 322.577 339.354 322.527 340.348 322.463C340.366 323.256 340.402 324.04 340.457 324.814C340.512 325.58 340.589 326.355 340.689 327.139L339.459 327.303C339.331 326.163 338.953 325.393 338.324 324.992C337.704 324.591 336.456 324.391 334.578 324.391C334.241 324.391 333.79 324.4 333.225 324.418C332.669 324.427 331.985 324.445 331.174 324.473C331.156 325.676 331.137 326.829 331.119 327.932C331.11 329.035 331.096 330.092 331.078 331.104H331.475C332.003 331.104 332.66 331.108 333.443 331.117C334.236 331.126 334.765 331.131 335.029 331.131C336.287 331.131 337.112 331.008 337.504 330.762C337.896 330.516 338.105 330.046 338.133 329.354L339.145 329.449C339.145 329.905 339.131 330.479 339.104 331.172C339.076 331.855 339.062 332.32 339.062 332.566C339.062 332.812 339.067 333.127 339.076 333.51C339.094 333.893 339.117 334.353 339.145 334.891L337.996 334.973V334.809C337.996 334.025 337.768 333.496 337.312 333.223C336.866 332.949 335.804 332.812 334.127 332.812H332.09H331.051V334.385C331.051 335.196 331.055 336.03 331.064 336.887C331.074 337.734 331.087 338.746 331.105 339.922C331.516 339.977 332.026 340.022 332.637 340.059C333.257 340.086 333.931 340.1 334.66 340.1C336.839 340.1 338.288 339.872 339.008 339.416C339.737 338.96 340.325 338.085 340.771 336.791L342.029 337.188C341.729 338.062 341.469 338.896 341.25 339.689C341.04 340.482 340.863 341.253 340.717 342C338.566 341.927 336.852 341.877 335.576 341.85C334.3 341.822 333.165 341.809 332.172 341.809C331.051 341.809 329.26 341.85 326.799 341.932C325.951 341.959 325.309 341.982 324.871 342V340.797C324.926 340.806 324.985 340.815 325.049 340.824C325.122 340.824 325.227 340.824 325.363 340.824C326.129 340.824 326.648 340.592 326.922 340.127C327.195 339.653 327.332 338.418 327.332 336.422V335.055V333.797L327.359 330.748C327.359 330.611 327.364 330.406 327.373 330.133C327.4 329.012 327.414 328.246 327.414 327.836C327.414 327.426 327.41 326.997 327.4 326.551C327.391 326.104 327.387 325.858 327.387 325.812C327.387 325.02 327.241 324.468 326.949 324.158C326.667 323.848 326.17 323.693 325.459 323.693H325.145V322.463Z" fill="#DC3A38"/>
</svg>
